<svg enable-background="new 0 0 512 512" viewBox="0 0 512 512" xmlns="http://www.w3.org/2000/svg"><path d="m437.022 74.984c-48.352-48.354-112.641-74.984-181.022-74.984-68.376 0-132.662 26.63-181.016 74.984s-74.984 112.64-74.984 181.016c0 68.388 26.63 132.678 74.984 181.028 48.351 48.347 112.637 74.972 181.016 74.972 68.385 0 132.673-26.625 181.021-74.972 48.351-48.349 74.979-112.639 74.979-181.028 0-68.377-26.628-132.664-74.978-181.016zm-11.314 350.73c-45.327 45.325-105.597 70.286-169.708 70.286-64.106 0-124.374-24.961-169.703-70.286-45.332-45.328-70.297-105.601-70.297-169.714 0-64.102 24.965-124.37 70.297-169.703 45.333-45.332 105.601-70.297 169.703-70.297 64.108 0 124.378 24.965 169.708 70.297 45.329 45.331 70.292 105.599 70.292 169.703 0 64.115-24.963 124.387-70.292 169.714z"/><path d="m430.038 114.969c-2.784-3.432-7.821-3.957-11.253-1.172-3.431 2.784-3.956 7.822-1.172 11.252 29.913 36.87 46.387 83.377 46.387 130.951 0 55.567-21.635 107.803-60.919 147.085s-91.518 60.915-147.081 60.915c-51.26 0-100.505-18.807-138.663-52.956-3.292-2.946-8.35-2.665-11.296.626-2.946 3.292-2.666 8.35.626 11.296 41.096 36.779 94.13 57.034 149.333 57.034 59.837 0 116.089-23.297 158.394-65.601 42.307-42.304 65.606-98.559 65.606-158.399 0-51.233-17.744-101.319-49.962-141.031z"/><path d="m48 256c0-114.691 93.309-208 208-208 51.26 0 100.504 18.808 138.662 52.959 3.293 2.948 8.351 2.667 11.296-.625 2.947-3.292 2.667-8.35-.625-11.296-41.096-36.782-94.13-57.038-149.333-57.038-59.829 0-116.08 23.301-158.389 65.611-42.31 42.31-65.611 98.56-65.611 158.389 0 51.239 17.744 101.328 49.963 141.038 1.581 1.949 3.889 2.96 6.217 2.96 1.771 0 3.553-.585 5.036-1.788 3.431-2.784 3.956-7.822 1.172-11.253-29.914-36.869-46.388-83.377-46.388-130.957z"/><path d="m165.501 246.809h34.409c8.525 0 15.713-1.755 21.34-5.203 4.761-2.893 10.437-8.907 10.437-21.131 0-14.555-8.565-20.276-13.67-22.392-.174-.072-.352-.139-.531-.198-5.894-1.966-13.199-2.962-21.714-2.962h-30.271c-4.418 0-8 3.582-8 8v35.886c0 4.418 3.582 8 8 8zm8-35.886h22.271c6.649 0 12.159.69 16.383 2.052 1.364.587 3.532 1.841 3.532 7.5 0 5.789-1.994 7.001-2.77 7.472-3.1 1.898-7.476 2.861-13.008 2.861h-26.409v-19.885z"/><path d="m220.032 261.225c-4.91-2.273-11.302-3.42-19.625-3.506h-34.906c-4.418 0-8 3.582-8 8v43.345c0 4.418 3.582 8 8 8h34.369c8.405 0 14.941-1.2 20.025-3.691 6.894-3.431 15.11-10.983 15.11-27.477 0-11.52-5.335-20.289-14.973-24.671zm-7.221 37.801c-1.897.929-5.682 2.037-12.941 2.037h-26.369v-27.345h26.823c7.28.076 11.081 1.144 13.036 2.049 2.792 1.269 5.645 3.465 5.645 10.128 0 8.906-3.335 11.708-6.194 13.131z"/><path d="m354.305 236.65c-6.212-4.572-13.88-6.891-22.792-6.891-9.745 0-17.626 2.568-23.388 7.601-5.728 4.941-9.355 11.653-10.782 19.951-.4 2.325.247 4.707 1.767 6.511s3.758 2.845 6.117 2.845h52.473c2.236 0 4.371-.936 5.885-2.582 1.515-1.645 2.272-3.849 2.087-6.078-.762-9.222-4.596-16.414-11.367-21.357zm-36.955 14.017c.395-.43.815-.837 1.262-1.223 2.799-2.445 7.139-3.684 12.9-3.684 5.502 0 9.855 1.235 13.333 3.795.418.305.87.667 1.324 1.112z"/><path d="m364.008 197.575c4.418 0 8-3.582 8-8s-3.582-8-8-8h-65.489c-4.418 0-8 3.582-8 8s3.582 8 8 8z"/><path d="m397.302 282.69c.146-10.384-.222-18.601-1.101-24.475-1.615-10.306-5.182-19.525-10.552-27.328-6.096-9.071-13.993-15.826-23.474-20.079-9.102-4.076-19.418-6.143-30.663-6.143-19.195 0-35.122 6.226-47.344 18.51-10.977 11.052-17.057 26.398-18.149 45.654-1.15-3.105-2.595-6.028-4.348-8.749-2.686-4.197-6.071-7.818-10.125-10.841 1.172-1.083 2.232-2.199 3.178-3.346 6.211-7.473 9.361-17.246 9.361-29.047 0-11.331-3.012-21.257-8.997-29.563-9.764-13.291-26.056-20.217-48.423-20.586-.044 0-.088-.001-.132-.001h-78.533c-4.418 0-8 3.582-8 8v162.61c0 4.418 3.582 8 8 8h73.231c8.73 0 16.999-.796 24.577-2.366 8.217-1.702 15.477-4.942 21.579-9.63 5.333-4.009 9.861-9.03 13.457-14.924 3.854-6.1 6.399-12.815 7.61-20.052 3.173 12.619 9.212 22.609 18.106 29.81 13.288 10.682 28.779 16.099 46.045 16.099 21.006 0 37.726-6.588 49.631-19.514 5.526-5.863 9.423-11.942 11.583-18.068.863-2.448.484-5.163-1.015-7.282-1.5-2.119-3.934-3.378-6.53-3.378h-33.8c-2.25 0-4.397.948-5.913 2.611l-.493.548c-.264.296-.625.701-.807.858-2.858 2.362-6.721 3.51-11.807 3.51-5.089 0-9.178-1.025-12.499-3.134-.039-.024-.077-.049-.117-.073-3.407-2.083-5.752-5.3-7.078-9.743h75.542c4.375 0 7.939-3.514 8-7.888zm-150.013 27.194c-.026.041-.052.083-.078.125-2.548 4.188-5.732 7.731-9.465 10.531-.027.02-.053.041-.08.061-4.177 3.216-9.259 5.461-15.104 6.672-6.512 1.349-13.689 2.033-21.331 2.033h-65.231v-146.61h70.466c17.309.296 28.996 4.896 35.684 14 3.994 5.543 5.935 12.135 5.935 20.15 0 8.077-1.853 14.233-5.686 18.845-2.084 2.528-5.396 4.956-9.843 7.217-2.837 1.442-4.55 4.43-4.361 7.607.189 3.178 2.244 5.94 5.233 7.036 6.708 2.459 11.54 6.11 14.771 11.162.005.008.01.017.016.025 3.405 5.281 5.061 11.653 5.061 19.482-.001 8.221-1.959 15.308-5.987 21.664zm57.215-35.306c-2.177 0-4.26.887-5.769 2.458-1.508 1.57-2.312 3.687-2.225 5.862.579 14.463 5.937 24.905 15.924 31.038 5.869 3.71 12.94 5.592 21.02 5.592 8.834 0 16.235-2.414 21.938-7.126.164-.133.322-.267.475-.401h16.306c-.521.604-1.069 1.211-1.643 1.82-8.938 9.704-21.344 14.421-37.925 14.421-13.718 0-25.5-4.111-35.999-12.551-9.809-7.941-14.783-21.549-14.783-40.444 0-18.172 4.48-31.517 13.692-40.791 9.232-9.28 21.007-13.791 35.997-13.791 8.976 0 17.092 1.597 24.118 4.744 6.8 3.05 12.275 7.762 16.789 14.476 4.107 5.97 6.716 12.776 7.966 20.753.522 3.493.831 8.163.92 13.94z"/></svg>