<svg enable-background="new 0 0 512 512" viewBox="0 0 512 512" xmlns="http://www.w3.org/2000/svg"><path d="m437.022 74.984c-48.352-48.354-112.641-74.984-181.022-74.984-68.376 0-132.662 26.63-181.016 74.984s-74.984 112.64-74.984 181.016c0 68.388 26.63 132.678 74.984 181.028 48.351 48.347 112.637 74.972 181.016 74.972 68.385 0 132.673-26.625 181.021-74.972 48.351-48.349 74.979-112.639 74.979-181.028 0-68.377-26.628-132.664-74.978-181.016zm-11.314 350.73c-45.327 45.325-105.597 70.286-169.708 70.286-64.106 0-124.374-24.961-169.703-70.286-45.332-45.328-70.297-105.601-70.297-169.714 0-64.102 24.965-124.37 70.297-169.703 45.333-45.332 105.601-70.297 169.703-70.297 64.108 0 124.378 24.965 169.708 70.297 45.329 45.331 70.292 105.599 70.292 169.703 0 64.115-24.963 124.387-70.292 169.714z"/><path d="m430.038 114.969c-2.784-3.432-7.821-3.957-11.253-1.172-3.431 2.784-3.956 7.822-1.172 11.252 29.913 36.87 46.387 83.377 46.387 130.951 0 55.567-21.635 107.803-60.919 147.085s-91.518 60.915-147.081 60.915c-51.26 0-100.505-18.807-138.663-52.956-3.292-2.946-8.35-2.665-11.296.626-2.946 3.292-2.666 8.35.626 11.296 41.096 36.779 94.13 57.034 149.333 57.034 59.837 0 116.089-23.297 158.394-65.601 42.307-42.304 65.606-98.559 65.606-158.399 0-51.233-17.744-101.319-49.962-141.031z"/><path d="m48 256c0-114.691 93.309-208 208-208 51.26 0 100.504 18.808 138.662 52.959 3.293 2.948 8.351 2.667 11.296-.625 2.947-3.292 2.667-8.35-.625-11.296-41.096-36.782-94.13-57.038-149.333-57.038-59.829 0-116.08 23.301-158.389 65.611-42.31 42.31-65.611 98.56-65.611 158.389 0 51.239 17.744 101.328 49.963 141.038 1.581 1.949 3.889 2.96 6.217 2.96 1.771 0 3.553-.585 5.036-1.788 3.431-2.784 3.956-7.822 1.172-11.253-29.914-36.869-46.388-83.377-46.388-130.957z"/><path d="m378.664 233.281-1.911-3.974c-.539-1.12-1.331-2.1-2.314-2.86l-3.178-2.458c-3.943-3.094-9.624-3.229-17.486-3.415-3.936-.093-11.188-.265-13.305-1.31-1.529-1.694-2.241-7.044-2.993-12.698l-.23-1.718c-2.031-15.696-3.585-19.434-6.155-24.69-.309-.631-.636-1.298-1.012-2.111-11.254-23.815-40.932-41.236-61.975-43.718-.311-.037-.624-.055-.937-.055h-50.41c-44.162 0-80.09 35.829-80.09 79.869v83.839c0 43.972 35.928 79.746 80.09 79.746h82.815c43.922 0 79.856-35.754 80.103-79.685l.445-58.073c.005-.576-.053-1.15-.172-1.713l-.667-3.159c-.133-.629-.34-1.238-.618-1.817zm-14.989 64.655c-.197 35.174-28.954 63.791-64.103 63.791h-82.815c-35.339 0-64.09-28.596-64.09-63.746v-83.839c0-35.218 28.751-63.869 64.09-63.869h49.916c16.52 2.157 40.51 16.771 48.912 34.55.402.869.777 1.637 1.133 2.364 1.789 3.657 2.868 5.865 4.667 19.757l.232 1.732c1.223 9.188 2.278 17.124 8.232 22.571 5.393 4.892 14.622 5.11 23.547 5.321 2.826.067 6.983.166 8.65.52l1.107.856.673 1.4.289 1.367z"/><path d="m217.67 236.456h39.972c12.025 0 21.808-9.755 21.808-21.746 0-11.978-9.783-21.723-21.808-21.723h-39.972c-12.019 0-21.796 9.745-21.796 21.723 0 11.991 9.777 21.746 21.796 21.746zm0-27.468h39.972c3.203 0 5.808 2.567 5.808 5.723 0 3.114-2.66 5.746-5.808 5.746h-39.972c-3.142 0-5.796-2.631-5.796-5.746 0-3.156 2.6-5.723 5.796-5.723z"/><path d="m298.881 275.247h-81.211c-12.019 0-21.796 9.722-21.796 21.672 0 11.951 9.777 21.673 21.796 21.673h81.211c11.985 0 21.735-9.722 21.735-21.673 0-11.95-9.75-21.672-21.735-21.672zm0 27.345h-81.211c-3.142 0-5.796-2.598-5.796-5.673 0-3.128 2.6-5.672 5.796-5.672h81.211c3.163 0 5.735 2.544 5.735 5.672 0 3.076-2.626 5.673-5.735 5.673z"/></svg>