<svg enable-background="new 0 0 512 512" viewBox="0 0 512 512" xmlns="http://www.w3.org/2000/svg"><path d="m437.022 74.984c-48.352-48.354-112.641-74.984-181.022-74.984-68.376 0-132.662 26.63-181.016 74.984s-74.984 112.64-74.984 181.016c0 68.388 26.63 132.678 74.984 181.028 48.351 48.346 112.637 74.972 181.016 74.972 68.385 0 132.673-26.626 181.021-74.972 48.351-48.349 74.979-112.639 74.979-181.028 0-68.377-26.628-132.664-74.978-181.016zm-11.314 350.73c-45.327 45.325-105.597 70.286-169.708 70.286-64.106 0-124.374-24.961-169.703-70.286-45.332-45.328-70.297-105.601-70.297-169.714 0-64.102 24.965-124.37 70.297-169.703 45.333-45.332 105.601-70.297 169.703-70.297 64.108 0 124.378 24.965 169.708 70.297 45.329 45.331 70.292 105.599 70.292 169.703 0 64.115-24.963 124.387-70.292 169.714z"/><path d="m430.038 114.969c-2.784-3.431-7.821-3.957-11.253-1.172-3.431 2.784-3.956 7.822-1.172 11.252 29.913 36.87 46.387 83.377 46.387 130.951 0 55.567-21.635 107.803-60.919 147.085s-91.518 60.915-147.081 60.915c-51.26 0-100.505-18.807-138.663-52.956-3.292-2.946-8.35-2.666-11.296.626s-2.666 8.35.626 11.296c41.096 36.779 94.13 57.034 149.333 57.034 59.837 0 116.089-23.297 158.394-65.601 42.307-42.304 65.606-98.559 65.606-158.399 0-51.233-17.744-101.319-49.962-141.031z"/><path d="m48 256c0-114.691 93.309-208 208-208 51.26 0 100.504 18.808 138.662 52.959 3.293 2.948 8.351 2.666 11.296-.625 2.947-3.292 2.667-8.35-.625-11.296-41.096-36.782-94.13-57.038-149.333-57.038-59.829 0-116.08 23.301-158.389 65.611-42.31 42.31-65.611 98.56-65.611 158.389 0 51.239 17.744 101.328 49.963 141.038 1.581 1.949 3.889 2.96 6.217 2.96 1.771 0 3.553-.585 5.036-1.788 3.431-2.784 3.956-7.822 1.172-11.253-29.914-36.869-46.388-83.377-46.388-130.957z"/><path d="m401.753 189.305c-.125-2.563-1.471-4.911-3.621-6.312l-80.534-52.524c-2.943-1.92-6.795-1.693-9.494.557l-51.22 42.718-51.226-42.719c-2.699-2.251-6.552-2.477-9.494-.557l-80.536 52.524c-2.149 1.401-3.496 3.749-3.621 6.312s.988 5.03 2.991 6.633l47.882 38.339-47.881 38.319c-2.003 1.604-3.116 4.07-2.992 6.633s1.47 4.911 3.619 6.313l52.818 34.461c-.056.382-.094.769-.094 1.166v22.119c0 2.812 1.476 5.417 3.887 6.862l80.7 48.366c1.266.759 2.689 1.138 4.113 1.138s2.847-.379 4.113-1.138l80.7-48.366c2.411-1.445 3.887-4.05 3.887-6.862v-22.119c0-.467-.048-.922-.125-1.367l52.508-34.26c2.149-1.402 3.495-3.75 3.619-6.313s-.989-5.03-2.992-6.633l-47.879-38.319 47.881-38.339c2.004-1.603 3.116-4.07 2.991-6.632zm-144.868 85.692-65.97-40.718 65.97-40.717 65.965 40.717zm-56.932-127.896 43.275 36.088-66.947 41.32-42.653-34.152zm-23.673 96.947 66.949 41.322-43.274 36.087-66.326-43.275zm153.471 94.708-72.7 43.572-72.7-43.572v-8.375l11.813 7.707c1.334.87 2.855 1.3 4.371 1.3 1.828 0 3.649-.625 5.125-1.856l51.226-42.718 51.22 42.717c1.476 1.231 3.297 1.856 5.125 1.856 1.516 0 3.037-.43 4.371-1.3l12.15-7.928v8.597zm-15.94-17.299-43.27-36.086 66.944-41.322 42.65 34.133zm23.672-96.948-66.942-41.32 43.27-36.088 66.324 43.256z"/></svg>