<svg enable-background="new 0 0 512 512" viewBox="0 0 512 512" xmlns="http://www.w3.org/2000/svg"><path d="m222.892 388h51.491c4.418 0 8-3.582 8-8v-115.907h26.751c4.101 0 7.538-3.101 7.958-7.18l4.51-43.772c.232-2.252-.501-4.498-2.019-6.179-1.517-1.682-3.675-2.641-5.939-2.641h-31.261v-17.73c0-3.662 1.159-3.936 2.928-3.936h27.682c4.418 0 8-3.582 8-8v-42.5c0-4.406-3.562-7.982-7.968-8l-38.177-.155c-26.752 0-41.029 11.77-48.295 21.643-10.146 13.787-11.661 29.941-11.661 38.343v20.334h-16.489c-4.418 0-8 3.582-8 8v43.772c0 4.418 3.582 8 8 8h16.489v115.908c0 4.418 3.581 8 8 8zm-16.49-139.907v-27.772h16.489c4.418 0 8-3.582 8-8v-28.334c0-5.185.833-18.376 8.547-28.86 7.386-10.037 19.3-15.126 35.376-15.126l30.177.122v26.533h-19.682c-9.421 0-18.928 6.164-18.928 19.936v25.73c0 4.418 3.582 8 8 8h30.395l-2.862 27.772h-27.533c-4.418 0-8 3.582-8 8v115.906h-35.491v-115.907c0-4.418-3.582-8-8-8z"/><path d="m437.022 74.984c-48.352-48.354-112.641-74.984-181.022-74.984-68.376 0-132.662 26.63-181.016 74.984s-74.984 112.64-74.984 181.016c0 68.388 26.63 132.678 74.984 181.028 48.351 48.347 112.637 74.972 181.016 74.972 68.385 0 132.673-26.625 181.021-74.972 48.351-48.349 74.979-112.639 74.979-181.028 0-68.378-26.628-132.664-74.978-181.016zm-11.314 350.73c-45.327 45.325-105.597 70.286-169.708 70.286-64.106 0-124.374-24.961-169.703-70.286-45.332-45.328-70.297-105.601-70.297-169.714 0-64.102 24.965-124.37 70.297-169.702 45.333-45.333 105.601-70.298 169.703-70.298 64.108 0 124.378 24.965 169.708 70.297 45.329 45.331 70.292 105.599 70.292 169.703 0 64.115-24.963 124.387-70.292 169.714z"/><path d="m430.038 114.969c-2.784-3.432-7.821-3.957-11.253-1.172-3.431 2.784-3.956 7.822-1.172 11.252 29.913 36.87 46.387 83.376 46.387 130.951 0 55.567-21.635 107.803-60.919 147.086-39.284 39.281-91.518 60.914-147.081 60.914-51.26 0-100.505-18.807-138.663-52.956-3.292-2.946-8.35-2.666-11.296.626s-2.666 8.35.626 11.296c41.096 36.779 94.13 57.034 149.333 57.034 59.837 0 116.089-23.297 158.394-65.601 42.307-42.305 65.606-98.559 65.606-158.399 0-51.234-17.744-101.319-49.962-141.031z"/><path d="m48 256c0-114.691 93.309-208 208-208 51.26 0 100.504 18.808 138.662 52.959 3.293 2.948 8.351 2.666 11.296-.625 2.947-3.292 2.667-8.35-.625-11.296-41.096-36.782-94.13-57.038-149.333-57.038-59.829 0-116.079 23.301-158.389 65.611-42.31 42.309-65.611 98.56-65.611 158.389 0 51.24 17.744 101.328 49.963 141.038 1.581 1.949 3.889 2.96 6.217 2.96 1.771 0 3.553-.585 5.036-1.788 3.431-2.784 3.956-7.822 1.172-11.253-29.914-36.869-46.388-83.377-46.388-130.957z"/></svg>