<svg enable-background="new 0 0 512 512" viewBox="0 0 512 512" xmlns="http://www.w3.org/2000/svg"><path d="m437.022 74.984c-48.352-48.354-112.641-74.984-181.022-74.984-68.376 0-132.662 26.63-181.016 74.984s-74.984 112.64-74.984 181.016c0 68.388 26.63 132.678 74.984 181.028 48.351 48.346 112.637 74.972 181.016 74.972 68.385 0 132.673-26.626 181.021-74.972 48.351-48.349 74.979-112.639 74.979-181.028 0-68.377-26.628-132.664-74.978-181.016zm-11.314 350.73c-45.327 45.325-105.597 70.286-169.708 70.286-64.106 0-124.374-24.961-169.703-70.286-45.332-45.328-70.297-105.601-70.297-169.714 0-64.102 24.965-124.37 70.297-169.703 45.333-45.332 105.601-70.297 169.703-70.297 64.108 0 124.378 24.965 169.708 70.297 45.329 45.331 70.292 105.599 70.292 169.703 0 64.115-24.963 124.387-70.292 169.714z"/><path d="m430.038 114.969c-2.783-3.431-7.821-3.957-11.253-1.172-3.431 2.784-3.956 7.822-1.172 11.252 29.913 36.87 46.387 83.377 46.387 130.951 0 55.567-21.635 107.803-60.919 147.085s-91.518 60.915-147.081 60.915c-51.26 0-100.505-18.807-138.663-52.956-3.292-2.946-8.35-2.666-11.296.626s-2.666 8.35.626 11.296c41.096 36.779 94.13 57.034 149.333 57.034 59.837 0 116.089-23.297 158.394-65.601 42.307-42.304 65.606-98.559 65.606-158.399 0-51.233-17.744-101.319-49.962-141.031z"/><path d="m48 256c0-114.691 93.309-208 208-208 51.26 0 100.504 18.808 138.662 52.959 3.293 2.948 8.351 2.666 11.296-.625 2.947-3.292 2.667-8.35-.625-11.296-41.096-36.782-94.13-57.038-149.333-57.038-59.829 0-116.08 23.301-158.389 65.611-42.31 42.31-65.611 98.56-65.611 158.389 0 51.239 17.744 101.328 49.963 141.038 1.581 1.949 3.889 2.96 6.217 2.96 1.771 0 3.553-.585 5.036-1.788 3.431-2.784 3.956-7.822 1.172-11.253-29.914-36.869-46.388-83.377-46.388-130.957z"/><path d="m391.999 287.677c0-.008.001-.015.001-.023 0-.056-.007-.111-.008-.167-.003-.131-.006-.263-.015-.394-.005-.066-.008-.132-.015-.198-.007-.072-.018-.142-.027-.214-.015-.124-.032-.247-.053-.37-.01-.059-.019-.118-.031-.176-.016-.085-.036-.169-.055-.254-.025-.109-.051-.218-.081-.327-.015-.055-.029-.11-.045-.164-.029-.098-.061-.194-.094-.29-.031-.091-.062-.183-.097-.273-.021-.057-.043-.114-.065-.17-.043-.105-.089-.208-.136-.311-.034-.074-.066-.148-.102-.221-.03-.061-.06-.122-.092-.182-.056-.108-.118-.212-.179-.316-.028-.048-.05-.097-.079-.145l-.069-.113c-.004-.006-.007-.012-.011-.018l-87.92-143.868c-.026-.043-.057-.08-.083-.122-.084-.131-.172-.259-.263-.385-.07-.097-.14-.193-.214-.286-.081-.102-.166-.201-.251-.299-.092-.105-.184-.209-.28-.309-.077-.079-.158-.155-.238-.231-.11-.104-.22-.207-.335-.304-.081-.068-.165-.132-.248-.197-.118-.092-.237-.184-.36-.269-.096-.067-.196-.128-.296-.191-.114-.072-.228-.144-.345-.21-.119-.067-.241-.127-.363-.187-.104-.052-.208-.104-.314-.151-.137-.061-.277-.114-.418-.167-.098-.037-.196-.075-.296-.108-.144-.048-.291-.088-.438-.128-.106-.028-.211-.057-.317-.082-.136-.031-.275-.055-.414-.079-.126-.022-.253-.042-.38-.058-.12-.015-.242-.025-.363-.034-.152-.012-.303-.02-.456-.023-.051-.001-.101-.008-.153-.008h-80c-.049 0-.096.006-.145.007-.079.002-.159-.002-.238.002-.09.004-.179.016-.269.024-.105.008-.209.018-.313.031-.058.007-.117.01-.175.018-.095.014-.188.035-.283.052-.113.02-.226.042-.338.067-.045.01-.091.017-.137.028-.09.022-.179.051-.268.076-.118.033-.236.067-.352.105-.045.015-.091.028-.136.044-.079.028-.157.062-.236.092-.116.045-.231.089-.344.139-.055.024-.11.048-.165.074-.067.032-.132.068-.199.101-.105.053-.211.105-.313.163-.07.039-.139.079-.207.12-.018.011-.037.019-.055.03-.043.026-.08.057-.122.083-.086.055-.173.109-.258.168-.076.053-.152.107-.226.163-.064.048-.125.097-.187.147-.065.052-.131.103-.195.157-.073.062-.145.124-.216.189-.067.061-.131.123-.196.185-.055.053-.109.107-.162.162-.063.065-.125.129-.186.197-.064.071-.126.142-.188.215-.054.064-.106.13-.158.196-.049.063-.099.124-.147.188-.055.074-.109.148-.161.224-.059.085-.113.172-.169.259-.027.042-.057.08-.083.122l-87.92 143.868c-.004.006-.007.012-.011.018l-.069.113c-.036.06-.064.122-.099.182-.087.152-.173.304-.25.46-.054.109-.1.22-.148.33-.054.123-.108.246-.156.372-.052.136-.095.274-.139.412-.033.105-.068.209-.097.316-.04.148-.073.297-.105.447-.022.103-.044.206-.062.31-.025.146-.043.291-.059.437-.013.114-.026.229-.034.344-.009.132-.013.264-.015.397-.003.132-.005.263-.001.395.003.116.012.23.02.346.01.147.022.293.041.439.013.105.032.208.049.313.025.151.052.301.086.451.024.107.055.213.083.319.038.14.076.279.122.418.042.126.091.25.139.374.044.114.086.228.136.341.069.157.148.309.227.462.033.064.06.13.095.193l.067.12c.002.004.005.008.007.013l39.876 71.777c.008.015.017.03.025.045l.025.045c.007.013.016.023.023.036.065.115.136.226.206.338.062.099.123.198.19.294.05.072.1.143.152.213.039.053.082.103.122.155.063.081.125.162.191.24.097.115.2.225.305.335.012.013.024.027.036.04.042.043.08.09.123.133.023.023.049.043.072.065.099.096.203.189.309.28.096.084.192.167.291.246.041.032.078.069.12.1.055.042.117.078.174.119.126.091.254.179.385.263.042.027.08.057.122.083.024.015.05.024.074.038.058.034.114.069.173.102.229.129.463.247.705.354.021.009.041.021.062.03.03.013.061.026.091.038.016.006.032.011.047.017.258.105.523.195.793.274.047.014.093.029.14.042.051.014.103.021.153.033.22.055.443.1.669.136.072.011.143.031.215.04.032.004.065.003.098.007.283.034.569.054.86.057.027 0 .055.006.082.006h.004c.004 0 .007.001.011.001.008 0 .016-.001.024-.001h175.938c.008 0 .016.001.024.001.024 0 .048-.004.072-.005.3-.002.595-.024.887-.058.086-.01.172-.026.258-.039.246-.037.488-.085.726-.144.076-.019.152-.037.227-.058.295-.083.584-.178.864-.293.013-.005.026-.009.039-.014.298-.124.584-.267.863-.424.071-.04.14-.085.21-.128.202-.122.397-.253.587-.392.083-.06.165-.12.246-.184.239-.19.47-.388.685-.604.037-.037.07-.079.107-.117.19-.198.369-.406.538-.622.057-.073.112-.147.166-.222.176-.242.341-.493.49-.755.011-.02.026-.037.037-.057l.025-.045c.008-.015.017-.03.025-.045l39.876-71.777c.002-.004.005-.008.007-.013l.067-.12c.004-.007.006-.014.01-.02.056-.102.105-.208.157-.313s.105-.21.153-.317c.006-.013.013-.026.019-.039.007-.016.016-.032.024-.049.046-.106.082-.217.123-.326.038-.1.076-.199.11-.301.007-.021.016-.042.023-.063s.016-.041.023-.063c.031-.1.053-.205.081-.307.028-.103.057-.205.08-.309.012-.055.03-.109.041-.163.004-.02.006-.042.01-.062.015-.075.023-.151.036-.226.018-.104.036-.208.049-.313.008-.065.02-.129.027-.194.001-.014.001-.029.003-.043.007-.067.007-.135.012-.202.008-.115.017-.23.02-.346.001-.068.005-.137.005-.206zm-52.706 63.977h-157.029l34.222-56h87.506c.005 0 .01.001.016.001.005 0 .01-.001.015-.001h66.382zm-47.779-200 78.222 128h-61.249l-78.222-128zm-1.778 128h-63.472l31.736-51.931zm-73.736-120.658 32.625 53.386-80.295 131.392-31.071-55.928z"/></svg>