<svg enable-background="new 0 0 512 512" viewBox="0 0 512 512" xmlns="http://www.w3.org/2000/svg"><path d="m437.022 74.984c-48.352-48.354-112.641-74.984-181.022-74.984-68.376 0-132.662 26.63-181.016 74.984s-74.984 112.64-74.984 181.016c0 68.388 26.63 132.678 74.984 181.028 48.351 48.347 112.637 74.972 181.016 74.972 68.385 0 132.673-26.625 181.021-74.972 48.351-48.349 74.979-112.639 74.979-181.028 0-68.377-26.628-132.664-74.978-181.016zm-11.314 350.73c-45.327 45.325-105.597 70.286-169.708 70.286-64.106 0-124.374-24.961-169.703-70.286-45.332-45.328-70.297-105.601-70.297-169.714 0-64.102 24.965-124.37 70.297-169.703 45.333-45.332 105.601-70.297 169.703-70.297 64.108 0 124.378 24.965 169.708 70.297 45.329 45.331 70.292 105.599 70.292 169.703 0 64.115-24.963 124.387-70.292 169.714z"/><path d="m430.038 114.969c-2.784-3.432-7.821-3.956-11.253-1.172-3.431 2.784-3.956 7.822-1.172 11.252 29.913 36.87 46.387 83.377 46.387 130.951 0 55.567-21.635 107.803-60.919 147.085s-91.518 60.915-147.081 60.915c-51.26 0-100.505-18.807-138.663-52.956-3.292-2.946-8.35-2.666-11.296.626s-2.666 8.35.626 11.296c41.096 36.779 94.13 57.034 149.333 57.034 59.837 0 116.089-23.297 158.394-65.601 42.307-42.304 65.606-98.559 65.606-158.399 0-51.233-17.744-101.319-49.962-141.031z"/><path d="m48 256c0-114.691 93.309-208 208-208 51.26 0 100.504 18.808 138.662 52.959 3.293 2.948 8.351 2.666 11.296-.625 2.947-3.292 2.667-8.35-.625-11.296-41.096-36.782-94.13-57.038-149.333-57.038-59.829 0-116.08 23.301-158.389 65.611-42.31 42.31-65.611 98.56-65.611 158.389 0 51.239 17.744 101.328 49.963 141.038 1.581 1.949 3.889 2.96 6.217 2.96 1.771 0 3.553-.585 5.036-1.788 3.431-2.784 3.956-7.822 1.172-11.253-29.914-36.869-46.388-83.377-46.388-130.957z"/><path d="m190.165 301.683c-9.963 7.207-15.45 17.038-15.45 27.681s5.487 20.474 15.45 27.681c9.182 6.641 21.255 10.299 33.996 10.299s24.814-3.658 33.996-10.299c9.963-7.207 15.451-17.038 15.451-27.681s-5.487-20.474-15.451-27.681c-9.182-6.641-21.255-10.299-33.996-10.299s-24.815 3.658-33.996 10.299zm67.441 27.681c0 11.915-15.316 21.98-33.446 21.98-18.129 0-33.446-10.065-33.446-21.98s15.316-21.98 33.446-21.98 33.446 10.066 33.446 21.98z"/><path d="m319.421 139.739c-1.218-3.031-4.157-5.017-7.423-5.017h-84.298c-19.621 0-39.336 7.288-54.092 19.995-15.092 12.996-23.748 30.545-23.748 48.147 0 34.097 21.703 59.868 53.707 65.13.022.511.056 1.02.1 1.525-17.9 2.344-34.269 9.666-46.85 21.092-14.078 12.785-22.151 29.579-22.151 46.076 0 32.792 36.719 56.592 87.31 56.592 42.855 0 87.183-24.679 87.183-65.978 0-26.438-7.826-40.802-32.233-59.131l-1.465-1.091c-6.519-4.843-9.81-7.736-11.438-9.337.908-.99 2.825-2.794 6.866-5.953 16.838-13.146 25.739-29.733 25.739-47.972 0-10.578-2.203-20.519-6.417-29.13l27.325-26.189c2.356-2.261 3.103-5.728 1.885-8.759zm-44.759 27.686c-2.77 2.655-3.265 6.903-1.18 10.124 4.673 7.217 7.143 16.3 7.143 26.268 0 13.13-6.772 25.357-19.588 35.362-11.025 8.617-13.721 12.595-13.736 20.272-.002.956.167 1.905.5 2.801 1.297 3.492 4.874 7.833 18.108 17.664l1.432 1.066c20.508 15.401 25.816 24.924 25.816 46.318 0 17.891-11.656 29.421-21.435 35.942-13.373 8.919-31.506 14.035-49.749 14.035-20.771 0-39.49-4.46-52.708-12.559-8.486-5.199-18.601-14.283-18.601-28.033 0-29.984 32.696-51.069 63.233-51.95 2.668-.077 5.122-1.479 6.542-3.739s1.621-5.079.533-7.517c-.969-2.171-1.439-4.471-1.439-7.031 0-1.351.129-2.742.383-4.134.413-2.26-.166-4.589-1.588-6.393s-3.553-2.909-5.847-3.034c-27.885-1.516-46.621-21.62-46.621-50.025 0-12.939 6.629-26.069 18.188-36.023 11.896-10.244 27.806-16.119 43.651-16.119h64.39z"/><path d="m203.421 163.899c-8.114 4.101-13.623 12.48-15.112 22.99-1.361 9.603.62 20.295 5.578 30.106 8.384 16.592 22.903 26.611 36.553 26.611 4.091 0 8.104-.9 11.85-2.793 16.244-8.209 20.432-31.532 9.535-53.097-4.958-9.811-12.391-17.748-20.93-22.348-9.346-5.035-19.359-5.57-27.474-1.469zm19.885 15.555c5.603 3.018 10.793 8.66 14.238 15.478 6.508 12.879 5.354 27.646-2.471 31.6-7.825 3.955-20.398-3.874-26.907-16.754-3.446-6.818-4.91-14.343-4.017-20.644.438-3.088 1.863-8.618 6.488-10.955 1.481-.749 3.03-1.039 4.543-1.039 3.213.001 6.259 1.308 8.126 2.314z"/><path d="m359.998 246.722c4.418 0 8-3.582 8-8v-32h32c4.418 0 8-3.582 8-8s-3.582-8-8-8h-32v-32c0-4.418-3.582-8-8-8s-8 3.582-8 8v32h-32c-4.418 0-8 3.582-8 8s3.582 8 8 8h32v32c0 4.418 3.581 8 8 8z"/></svg>