<svg enable-background="new 0 0 409.602 409.602" viewBox="0 0 409.602 409.602" xmlns="http://www.w3.org/2000/svg"><path d="m349.617 59.988c-38.679-38.683-90.113-59.988-144.816-59.988s-106.129 21.305-144.813 59.988c-38.683 38.684-59.988 90.11-59.988 144.813 0 54.711 21.305 106.14 59.988 144.82 38.68 38.68 90.11 59.981 144.813 59.981 54.707 0 106.137-21.301 144.816-59.981 38.68-38.68 59.985-90.109 59.985-144.82 0-54.703-21.305-106.133-59.985-144.813zm-9.051 280.582c-36.261 36.262-84.476 56.231-135.765 56.231-51.285 0-99.5-19.969-135.762-56.231-36.266-36.261-56.238-84.48-56.238-135.769 0-51.281 19.972-99.496 56.238-135.762s84.481-56.238 135.762-56.238c51.285 0 99.5 19.972 135.765 56.238 36.262 36.262 56.235 84.477 56.235 135.762 0 51.293-19.973 99.508-56.235 135.769zm0 0"/><path d="m344.031 91.977c-2.226-2.747-6.258-3.168-9.004-.938-2.746 2.227-3.164 6.258-.937 9 23.93 29.496 37.109 66.699 37.109 104.762 0 44.453-17.308 86.242-48.734 117.668s-73.215 48.73-117.664 48.73c-41.008 0-80.406-15.043-110.93-42.363-2.637-2.359-6.68-2.133-9.039.5-2.355 2.633-2.133 6.68.5 9.035 32.879 29.426 75.305 45.629 119.469 45.629 47.867 0 92.871-18.637 126.715-52.48 33.843-33.844 52.484-78.848 52.484-126.719 0-40.989-14.195-81.055-39.969-112.824zm0 0"/><path d="m38.398 204.801c0-91.754 74.649-166.403 166.403-166.403 41.008 0 80.402 15.047 110.929 42.368 2.633 2.359 6.68 2.132 9.036-.5 2.359-2.633 2.132-6.68-.5-9.036-32.875-29.425-75.305-45.628-119.465-45.628-47.863 0-92.863 18.64-126.711 52.488-33.848 33.847-52.488 78.847-52.488 126.711 0 40.992 14.195 81.062 39.968 112.828 1.266 1.562 3.11 2.371 4.973 2.371 1.418 0 2.844-.469 4.031-1.434 2.742-2.226 3.164-6.257.938-9-23.934-29.496-37.114-66.703-37.114-104.765zm0 0"/><path d="m258.59 102.125h-107.18c-27.176 0-49.285 22.11-49.285 49.286v107.179c0 27.177 22.109 49.286 49.285 49.286h107.18c27.176 0 49.284-22.109 49.284-49.286v-107.179c0-27.176-22.108-49.286-49.284-49.286zm36.308 156.464c0 20.02-16.288 36.309-36.308 36.309h-107.18c-20.019 0-36.305-16.289-36.305-36.309v-107.178c0-20.019 16.287-36.305 36.305-36.305h107.18c20.02 0 36.308 16.287 36.308 36.305z"/><path d="m262.503 139.728c-4.358 0-7.904 3.545-7.904 7.901s3.546 7.9 7.904 7.9c4.356 0 7.9-3.544 7.9-7.9s-3.544-7.901-7.9-7.901z"/><path d="m204.998 154.57c-27.806 0-50.428 22.622-50.428 50.428 0 27.808 22.622 50.432 50.428 50.432 27.808 0 50.432-22.624 50.432-50.432 0-27.806-22.624-50.428-50.432-50.428zm0 87.884c-20.652 0-37.453-16.803-37.453-37.456 0-20.648 16.801-37.446 37.453-37.446 20.65 0 37.449 16.798 37.449 37.446.001 20.653-16.799 37.456-37.449 37.456z"/></svg>