<svg enable-background="new 0 0 512 512" viewBox="0 0 512 512" xmlns="http://www.w3.org/2000/svg"><path d="m437.022 74.984c-48.352-48.354-112.641-74.984-181.022-74.984-68.376 0-132.662 26.63-181.016 74.984s-74.984 112.64-74.984 181.016c0 68.388 26.63 132.678 74.984 181.028 48.351 48.347 112.637 74.972 181.016 74.972 68.385 0 132.673-26.625 181.021-74.972 48.351-48.349 74.979-112.639 74.979-181.028 0-68.377-26.628-132.664-74.978-181.016zm-11.314 350.73c-45.327 45.325-105.597 70.286-169.708 70.286-64.106 0-124.374-24.961-169.703-70.286-45.332-45.328-70.297-105.601-70.297-169.714 0-64.102 24.965-124.37 70.297-169.703 45.333-45.332 105.601-70.297 169.703-70.297 64.108 0 124.378 24.965 169.708 70.297 45.329 45.331 70.292 105.599 70.292 169.703 0 64.115-24.963 124.387-70.292 169.714z"/><path d="m430.038 114.969c-2.783-3.432-7.821-3.956-11.253-1.172-3.431 2.784-3.956 7.822-1.172 11.252 29.913 36.87 46.387 83.377 46.387 130.951 0 55.567-21.635 107.803-60.919 147.085s-91.518 60.915-147.081 60.915c-51.26 0-100.505-18.807-138.663-52.956-3.292-2.946-8.35-2.666-11.296.626s-2.666 8.35.626 11.296c41.096 36.779 94.13 57.034 149.333 57.034 59.837 0 116.089-23.297 158.394-65.601 42.307-42.304 65.606-98.559 65.606-158.399 0-51.233-17.744-101.319-49.962-141.031z"/><path d="m48 256c0-114.691 93.309-208 208-208 51.26 0 100.504 18.808 138.662 52.959 3.293 2.948 8.351 2.666 11.296-.625 2.947-3.292 2.667-8.35-.625-11.296-41.096-36.782-94.13-57.038-149.333-57.038-59.829 0-116.08 23.301-158.389 65.611-42.31 42.31-65.611 98.56-65.611 158.389 0 51.239 17.744 101.328 49.963 141.038 1.581 1.949 3.889 2.96 6.217 2.96 1.771 0 3.553-.585 5.036-1.788 3.431-2.784 3.956-7.822 1.172-11.253-29.914-36.869-46.388-83.377-46.388-130.957z"/><path d="m325.685 373.042h49.577c4.418 0 8-3.582 8-8v-85.508c0-24.007-6.204-42.903-18.439-56.162-11.438-12.395-27.571-18.947-46.653-18.947-16.595 0-28.251 5.056-36.677 11.636v-.138c0-4.418-3.582-8-8-8h-49.563c-2.185 0-4.274.894-5.784 2.473-1.509 1.58-2.307 3.708-2.208 5.891.62 13.618-.002 147.368-.008 148.718-.01 2.128.829 4.173 2.33 5.681s3.542 2.356 5.67 2.356h49.562c4.418 0 8-3.582 8-8v-83.282c0-4.336.347-7.376 1.053-9.092 1.594-3.953 6.54-13.146 18.02-13.146 4.683 0 17.121 0 17.121 25.734v79.785c-.001 4.419 3.58 8.001 7.999 8.001zm-25.121-129.52c-14.727 0-27.01 8.659-32.835 23.106-1.547 3.754-2.237 8.421-2.237 15.131v75.282h-33.526c.111-25.855.418-105.46.123-133.119h33.403v13.117c0 3.544 2.332 6.666 5.731 7.671 3.398 1.005 7.054-.347 8.982-3.32 6.721-10.367 16.487-20.966 37.964-20.966 31.199 0 49.093 21.544 49.093 59.108v77.508h-33.577v-71.785c0-12.136-2.428-21.855-7.216-28.887-5.723-8.404-14.681-12.846-25.905-12.846z"/><path d="m207.747 169.605c-.41-19.786-15.099-33.605-35.72-33.605-20.876 0-36.027 14.203-36.027 33.771s14.877 33.771 35.375 33.771h.333c20.883 0 36.041-14.203 36.041-33.771 0-.055-.001-.11-.002-.166zm-36.039 17.937h-.333c-11.589 0-19.375-7.142-19.375-17.771s8.048-17.771 20.026-17.771c11.906 0 19.456 6.838 19.722 17.853-.041 10.584-8.084 17.689-20.04 17.689z"/><path d="m146.919 207.922c-4.418 0-8 3.582-8 8v149.119c0 4.418 3.582 8 8 8h49.591c4.418 0 8-3.582 8-8v-149.119c0-4.418-3.582-8-8-8zm41.592 149.12h-33.591v-133.12h33.591z"/></svg>