<svg enable-background="new 0 0 512 512" viewBox="0 0 512 512" xmlns="http://www.w3.org/2000/svg"><path d="m437.022 74.984c-48.352-48.354-112.641-74.984-181.022-74.984-68.376 0-132.662 26.63-181.016 74.984s-74.984 112.64-74.984 181.016c0 68.388 26.63 132.678 74.984 181.028 48.351 48.347 112.637 74.972 181.016 74.972 68.385 0 132.673-26.625 181.021-74.972 48.351-48.349 74.979-112.639 74.979-181.028 0-68.377-26.628-132.664-74.978-181.016zm-11.314 350.73c-45.327 45.325-105.597 70.286-169.708 70.286-64.106 0-124.374-24.961-169.703-70.286-45.332-45.328-70.297-105.601-70.297-169.714 0-64.102 24.965-124.37 70.297-169.703 45.333-45.332 105.601-70.297 169.703-70.297 64.108 0 124.378 24.965 169.708 70.297 45.329 45.331 70.292 105.599 70.292 169.703 0 64.115-24.963 124.387-70.292 169.714z"/><path d="m430.038 114.969c-2.783-3.432-7.821-3.957-11.253-1.172-3.431 2.784-3.956 7.822-1.172 11.252 29.913 36.87 46.387 83.377 46.387 130.951 0 55.567-21.635 107.803-60.919 147.085s-91.518 60.915-147.081 60.915c-51.26 0-100.505-18.807-138.663-52.956-3.292-2.946-8.35-2.666-11.296.626s-2.666 8.35.626 11.296c41.096 36.779 94.13 57.034 149.333 57.034 59.837 0 116.089-23.297 158.394-65.601 42.307-42.304 65.606-98.559 65.606-158.399 0-51.233-17.744-101.319-49.962-141.031z"/><path d="m48 256c0-114.691 93.309-208 208-208 51.26 0 100.504 18.808 138.662 52.959 3.293 2.948 8.351 2.666 11.296-.625 2.947-3.292 2.667-8.35-.625-11.296-41.096-36.782-94.13-57.038-149.333-57.038-59.829 0-116.08 23.301-158.389 65.611-42.31 42.31-65.611 98.56-65.611 158.389 0 51.239 17.744 101.328 49.963 141.038 1.581 1.949 3.889 2.96 6.217 2.96 1.771 0 3.553-.585 5.036-1.788 3.431-2.784 3.956-7.822 1.172-11.253-29.914-36.869-46.388-83.377-46.388-130.957z"/><path d="m188.649 390.892.078.527c.544 3.961 3.382 7.186 7.252 8.23.887.239 1.785.355 2.672.355 3.095 0 6.059-1.415 8.002-3.943l.29-.371c6.659-8.485 22.811-30.625 28.956-52.897 1.103-4.02 4.533-17.469 7.254-28.195 9.037 6.702 21.311 10.905 33.576 10.905 26.298 0 49.937-11.82 66.56-33.282 15.936-20.571 24.711-49.144 24.711-80.454 0-24.85-10.646-49.326-29.21-67.154-19.655-18.875-46.817-29.271-76.485-29.271-45.115 0-72.94 18.565-88.339 34.139-19.043 19.26-29.965 44.864-29.965 70.245 0 32.235 13.676 57.05 36.57 66.375 3.941 1.613 8.026 1.54 11.505-.208 3.46-1.738 5.946-4.96 6.98-8.995.355-1.331.938-3.648 1.533-6.013.612-2.435 1.237-4.921 1.627-6.375 1.916-7.225.127-11.138-3.851-15.841-5.657-6.665-8.292-14.629-8.292-25.065 0-17.535 6.462-33.882 18.196-46.03 12.577-13.021 29.793-19.903 49.787-19.903 34.672 0 56.211 19.596 56.211 51.14 0 41.53-17.979 74.061-40.931 74.061-5.677 0-10.74-2.285-13.89-6.269-2.926-3.701-3.876-8.534-2.674-13.607 1.613-6.802 3.818-13.96 5.952-20.882 4.045-13.125 7.865-25.523 7.865-35.738 0-18.625-11.569-31.139-28.788-31.139-21.181 0-37.772 21.054-37.772 47.931 0 11.66 2.846 20.738 4.549 25.126-3.037 12.86-16.625 70.407-19.261 81.521-5.213 22.029-2.656 47.722-.668 61.077zm16.24-57.386c2.971-12.528 19.866-84.084 19.866-84.084.424-1.797.193-3.727-.616-5.386-.041-.084-4.107-8.565-4.107-20.867 0-17.905 9.563-31.931 21.772-31.931 11.126 0 12.788 9.485 12.788 15.139 0 7.805-3.476 19.084-7.156 31.025-2.21 7.171-4.495 14.586-6.229 21.905-2.354 9.935-.333 19.602 5.692 27.221 6.204 7.846 15.841 12.345 26.44 12.345 16.828 0 31.874-10.073 42.367-28.363 9.392-16.371 14.563-38.282 14.563-61.698 0-19.332-6.567-35.927-18.992-47.992-12.901-12.527-31.303-19.148-53.219-19.148-24.087 0-45.855 8.803-61.295 24.788-14.63 15.146-22.688 35.441-22.688 57.146 0 14.246 3.956 25.832 12.084 35.408.326.386.558.675.721.888-.032.135-.072.296-.122.486-.399 1.486-1.049 4.069-1.685 6.599-.283 1.128-.564 2.245-.817 3.24-15.454-7.631-24.255-25.852-24.255-50.5 0-21.203 9.237-42.707 25.343-58.996 13.255-13.407 37.368-29.388 76.961-29.388 25.515 0 48.742 8.812 65.402 24.811 15.439 14.825 24.293 35.096 24.293 55.613 0 27.782-7.585 52.875-21.359 70.657-13.722 17.715-32.364 27.08-53.911 27.08-14.074 0-26.848-7.754-30.612-14.938-1.539-2.938-4.726-4.619-8.026-4.232-3.294.39-6.006 2.772-6.817 5.988-.09.354-8.968 35.544-10.802 42.227-3.543 12.842-11.138 25.946-17.637 35.596-1.211-15.454-.521-29.771 2.053-40.639z"/></svg>