<svg enable-background="new 0 0 512 512" viewBox="0 0 512 512" xmlns="http://www.w3.org/2000/svg"><path d="m437.022 74.984c-48.352-48.354-112.641-74.984-181.022-74.984-68.376 0-132.662 26.63-181.016 74.984s-74.984 112.64-74.984 181.016c0 68.388 26.63 132.678 74.984 181.028 48.351 48.347 112.637 74.972 181.016 74.972 68.385 0 132.673-26.625 181.021-74.972 48.351-48.349 74.979-112.639 74.979-181.028 0-68.377-26.628-132.664-74.978-181.016zm-11.314 350.73c-45.327 45.325-105.597 70.286-169.708 70.286-64.106 0-124.374-24.961-169.703-70.286-45.332-45.328-70.297-105.601-70.297-169.714 0-64.102 24.965-124.37 70.297-169.703 45.333-45.332 105.601-70.297 169.703-70.297 64.108 0 124.378 24.965 169.708 70.297 45.329 45.331 70.292 105.599 70.292 169.703 0 64.115-24.963 124.387-70.292 169.714z"/><path d="m430.038 114.969c-2.784-3.431-7.821-3.957-11.253-1.172-3.431 2.784-3.956 7.822-1.172 11.252 29.913 36.87 46.387 83.377 46.387 130.951 0 55.567-21.635 107.803-60.919 147.085s-91.518 60.915-147.081 60.915c-51.26 0-100.505-18.807-138.663-52.956-3.292-2.946-8.35-2.665-11.296.626-2.946 3.292-2.666 8.35.626 11.296 41.096 36.779 94.13 57.034 149.333 57.034 59.837 0 116.089-23.297 158.394-65.601 42.307-42.304 65.606-98.559 65.606-158.399 0-51.233-17.744-101.319-49.962-141.031z"/><path d="m48 256c0-114.691 93.309-208 208-208 51.26 0 100.504 18.808 138.662 52.959 3.293 2.948 8.35 2.667 11.296-.625 2.947-3.292 2.667-8.35-.625-11.296-41.096-36.782-94.13-57.038-149.333-57.038-59.829 0-116.08 23.301-158.389 65.611-42.31 42.31-65.611 98.56-65.611 158.389 0 51.239 17.744 101.328 49.963 141.038 1.581 1.949 3.889 2.96 6.217 2.96 1.771 0 3.553-.585 5.036-1.788 3.431-2.784 3.956-7.822 1.172-11.253-29.914-36.869-46.388-83.377-46.388-130.957z"/><path d="m340.086 367.902h42.906c4.418 0 8-3.582 8-8 0-127.871-103.585-231.902-230.909-231.902-4.418 0-8 3.582-8 8v42.918c0 4.418 3.582 8 8 8 94.843 0 172.003 77.6 172.003 172.983 0 4.419 3.582 8.001 8 8.001zm-172.003-196.815v-26.94c112.167 4.141 202.652 95.066 206.763 207.754h-26.926c-4.07-97.843-82.508-176.693-179.837-180.814z"/><path d="m256.296 359.846c0 4.418 3.582 8 8 8h42.905c4.418 0 8-3.582 8-8 0-85.879-69.61-155.748-155.173-155.748-4.418 0-8 3.582-8 8v42.905c0 4.418 3.582 8 8 8 25.728 0 49.883 10.05 68.022 28.306 18.215 18.292 28.246 42.632 28.246 68.537zm-88.268-139.52c70.396 4.024 126.954 60.829 130.948 131.52h-26.956c-1.878-27.151-13.298-52.41-32.626-71.82-19.269-19.392-44.365-30.85-71.366-32.743z"/><path d="m152 329.926c0 20.809 16.916 37.737 37.709 37.737 20.808 0 37.737-16.929 37.737-37.737 0-20.8-16.929-37.722-37.737-37.722-20.793 0-37.709 16.922-37.709 37.722zm59.446 0c0 11.986-9.751 21.737-21.737 21.737-11.97 0-21.709-9.751-21.709-21.737 0-11.978 9.739-21.722 21.709-21.722 11.986 0 21.737 9.745 21.737 21.722z"/></svg>