<svg enable-background="new 0 0 512 512" viewBox="0 0 512 512" xmlns="http://www.w3.org/2000/svg"><path d="m437.022 74.984c-48.352-48.354-112.641-74.984-181.022-74.984-68.376 0-132.662 26.63-181.016 74.984s-74.984 112.64-74.984 181.016c0 68.388 26.63 132.678 74.984 181.028 48.351 48.346 112.637 74.972 181.016 74.972 68.385 0 132.673-26.626 181.021-74.972 48.351-48.349 74.979-112.639 74.979-181.028 0-68.377-26.628-132.664-74.978-181.016zm-11.314 350.73c-45.327 45.325-105.597 70.286-169.708 70.286-64.106 0-124.374-24.961-169.703-70.286-45.332-45.328-70.297-105.601-70.297-169.714 0-64.102 24.965-124.37 70.297-169.703 45.333-45.332 105.601-70.297 169.703-70.297 64.108 0 124.378 24.965 169.708 70.297 45.329 45.331 70.292 105.599 70.292 169.703 0 64.115-24.963 124.387-70.292 169.714z"/><path d="m430.038 114.969c-2.783-3.431-7.821-3.957-11.253-1.172-3.431 2.784-3.956 7.822-1.172 11.252 29.913 36.87 46.387 83.377 46.387 130.951 0 55.567-21.635 107.803-60.919 147.085s-91.518 60.915-147.081 60.915c-51.26 0-100.505-18.807-138.663-52.956-3.292-2.946-8.35-2.666-11.296.626s-2.666 8.35.626 11.296c41.096 36.779 94.13 57.034 149.333 57.034 59.837 0 116.089-23.297 158.394-65.601 42.307-42.304 65.606-98.559 65.606-158.399 0-51.233-17.744-101.319-49.962-141.031z"/><path d="m48 256c0-114.691 93.309-208 208-208 51.26 0 100.504 18.808 138.662 52.959 3.293 2.948 8.351 2.666 11.296-.625 2.947-3.292 2.667-8.35-.625-11.296-41.096-36.782-94.13-57.038-149.333-57.038-59.829 0-116.08 23.301-158.389 65.611-42.31 42.31-65.611 98.56-65.611 158.389 0 51.239 17.744 101.328 49.963 141.038 1.581 1.949 3.889 2.96 6.217 2.96 1.771 0 3.553-.585 5.036-1.788 3.431-2.784 3.956-7.822 1.172-11.253-29.914-36.869-46.388-83.377-46.388-130.957z"/><path d="m277.821 303.575c-5.267 3.599-12.561 5.424-21.681 5.424-6.514 0-11.861-.898-15.45-2.591-3.502-1.66-6.176-3.69-7.964-6.057-2.244-2.947-4.432-6.846-6.476-11.529-2.567-6.008-5.86-10.75-9.816-14.118-4.542-3.833-10.286-5.859-16.611-5.859-7.445 0-14.033 2.498-19.049 7.219-5.192 4.879-7.937 11.137-7.937 18.098 0 9.291 3.276 18.725 9.733 28.032 6.187 8.942 14.325 16.172 24.234 21.513 13.386 7.103 30.308 10.705 50.295 10.705 16.598 0 31.295-2.611 43.682-7.759 12.929-5.368 22.979-13.04 29.872-22.801 7.017-9.912 10.575-21.221 10.575-33.613 0-10.349-2.125-19.373-6.315-26.82-4.131-7.345-9.938-13.486-17.263-18.257-6.685-4.348-14.817-8.071-24.166-11.064-8.663-2.781-18.569-5.378-29.444-7.72-8.272-1.911-14.181-3.36-17.605-4.318-3.049-.836-6.069-2.005-8.976-3.475-2.314-1.169-4.043-2.446-5.178-3.844-.484-.586-.784-1.204-.784-2.471 0-.855 0-2.857 4.458-5.772 4.287-2.819 10.385-4.249 18.125-4.249 10.829 0 15.217 2.111 16.873 3.372 3.559 2.708 6.731 6.676 9.429 11.794.051.098.105.194.161.29 3.254 5.598 6.224 9.503 9.391 12.33 4.129 3.63 9.673 5.471 16.479 5.471 7.436 0 14.042-2.771 19.118-8.027 4.948-5.15 7.563-11.41 7.563-18.104 0-6.16-1.683-12.418-5.005-18.61-3.183-5.916-8.148-11.541-14.766-16.725-6.455-5.041-14.535-9.091-24.029-12.042-9.333-2.884-20.333-4.346-32.694-4.346-15.478 0-29.246 2.191-40.912 6.508-12.37 4.558-22.066 11.34-28.811 20.147-6.958 9.052-10.485 19.542-10.485 31.181 0 12.139 3.417 22.581 10.164 31.046 6.336 7.923 14.9 14.217 25.461 18.713 9.608 4.077 21.561 7.657 35.554 10.646 9.605 2.016 17.38 3.942 23.088 5.718 4.525 1.421 8.168 3.397 10.788 5.836 1.234 1.166 2.497 2.851 2.497 6.517 0 2.688-.726 5.933-6.123 9.611zm14.57-27.802c-4.419-4.115-10.118-7.287-16.957-9.435-6.208-1.932-14.477-3.986-24.547-6.1-12.971-2.771-23.945-6.042-32.61-9.719-8.091-3.444-14.559-8.148-19.216-13.971-4.424-5.551-6.667-12.638-6.667-21.063 0-8.03 2.413-15.24 7.179-21.442 4.882-6.375 12.166-11.379 21.659-14.877 9.893-3.661 21.792-5.517 35.369-5.517 10.758 0 20.169 1.222 27.958 3.629 7.628 2.371 13.992 5.522 18.908 9.362 4.86 3.806 8.403 7.743 10.529 11.694 2.057 3.833 3.1 7.546 3.1 11.038 0 2.587-.985 4.817-3.087 7.004-2.061 2.134-4.474 3.127-7.595 3.127-2.723 0-4.823-.528-5.87-1.448-1.756-1.567-3.805-4.346-6.088-8.258-3.777-7.123-8.424-12.813-13.81-16.91-5.866-4.469-14.555-6.641-26.564-6.641-10.918 0-19.975 2.315-26.9 6.87-7.752 5.07-11.683 11.514-11.683 19.152 0 4.824 1.495 9.082 4.403 12.605 2.525 3.109 6.004 5.797 10.34 7.989 3.859 1.952 7.885 3.508 11.923 4.615 3.676 1.029 9.673 2.502 18.334 4.502.039.009.078.018.118.026 10.386 2.235 19.799 4.7 27.985 7.328 7.998 2.56 14.835 5.668 20.321 9.237 5.139 3.347 9.191 7.617 12.046 12.692 2.827 5.024 4.26 11.409 4.26 18.976 0 9.014-2.568 17.213-7.634 24.368-.002.003-.004.006-.006.009-5.125 7.259-12.843 13.066-22.945 17.261-10.433 4.336-23.064 6.534-37.544 6.534-17.345 0-31.744-2.974-42.75-8.814-7.619-4.106-13.885-9.66-18.627-16.515-4.568-6.585-6.885-12.951-6.885-18.92 0-2.537.919-4.583 2.898-6.442 2.055-1.934 4.7-2.875 8.087-2.875 2.57 0 4.628.683 6.265 2.064 2 1.703 3.884 4.538 5.473 8.256 2.58 5.91 5.417 10.916 8.417 14.855 3.34 4.421 8.003 8.07 13.872 10.852 5.805 2.738 13.304 4.127 22.29 4.127 12.401 0 22.732-2.764 30.7-8.208 8.695-5.926 13.104-13.607 13.104-22.829 0-7.337-2.527-13.444-7.553-18.188z"/><path d="m257.451 395.104c7.541 0 15.105-.616 22.526-1.833 11.423 5.631 24.125 8.597 36.914 8.597 45.976 0 83.38-37.407 83.38-83.383.005-12.039-2.497-23.626-7.439-34.483 1.734-8.807 2.612-17.841 2.612-26.896 0-76.084-61.901-137.983-137.987-137.983-6.842 0-13.76.516-20.606 1.536-12.661-7.348-27.021-11.217-41.73-11.217-45.982 0-83.392 37.415-83.392 83.403 0 13.789 3.431 27.373 9.948 39.483-1.473 8.103-2.219 16.423-2.219 24.778 0 76.092 61.903 137.998 137.993 137.998zm-62.33-269.664c12.713 0 25.103 3.577 35.829 10.345 1.67 1.054 3.67 1.455 5.617 1.12 6.926-1.184 13.955-1.784 20.891-1.784 67.264 0 121.987 54.721 121.987 121.983 0 8.842-.944 17.656-2.807 26.197-.387 1.776-.158 3.63.649 5.259 4.639 9.355 6.989 19.421 6.985 29.92 0 37.157-30.227 67.386-67.38 67.386-11.103 0-22.121-2.762-31.861-7.988-1.17-.628-2.47-.951-3.782-.951-.485 0-.971.044-1.453.133-7.333 1.354-14.851 2.042-22.344 2.042-67.267 0-121.993-54.729-121.993-121.999 0-8.301.83-16.554 2.467-24.53.398-1.938.064-3.953-.938-5.659-6.057-10.317-9.258-22.099-9.258-34.072-.001-37.165 30.231-67.402 67.391-67.402z"/></svg>