<svg enable-background="new 0 0 512 512" viewBox="0 0 512 512" xmlns="http://www.w3.org/2000/svg"><path d="m333.42 367.06c38.917 0 70.58-31.662 70.58-70.58v-38.815c0-4.418-3.582-8-8-8h-47.897c-4.418 0-8 3.582-8 8v40.092c0 3.762-3.061 6.823-6.822 6.823-3.762 0-6.823-3.061-6.823-6.823v-39.322c0-2.527-1.194-4.906-3.221-6.416s-4.648-1.973-7.069-1.25l-25.608 7.65-16.352-7.637c-2.478-1.157-5.375-.968-7.682.5-2.307 1.469-3.704 4.014-3.704 6.749v39.073c.315 38.574 31.985 69.956 70.598 69.956zm-54.598-96.462 7.725 3.608c1.777.831 3.797.979 5.675.417l18.235-5.448v28.583c0 12.585 10.238 22.823 22.823 22.823 12.584 0 22.822-10.238 22.822-22.823v-32.092h31.898v30.815c0 30.096-24.484 54.58-54.58 54.58-29.862 0-54.355-24.263-54.598-54.02z"/><path d="m163.897 249.665h-47.897c-4.418 0-8 3.582-8 8v38.815c0 38.918 31.662 70.58 70.58 70.58 18.685 0 36.285-7.222 49.558-20.336 13.254-13.095 20.701-30.581 20.968-49.237 0-.036.001-.072.001-.108l.071-89.273c0-3.772 3.06-6.84 6.821-6.84 3.762 0 6.822 3.068 6.822 6.84v17.22c0 3.107 1.799 5.934 4.615 7.249l19.11 8.925c1.777.83 3.797.979 5.675.417l28.525-8.522c3.388-1.012 5.71-4.129 5.71-7.665v-19.792c0-.079-.001-.158-.003-.237-.545-18.393-8.109-35.602-21.297-48.457-13.229-12.896-30.687-19.997-49.157-19.997-38.131 0-69.077 29.884-70.452 68.035-.003.096-.005.192-.005.288v90.404c0 3.772-3.061 6.84-6.823 6.84s-6.822-3.068-6.822-6.84v-38.307c0-4.421-3.581-8.002-8-8.002zm14.823 69.147c12.585 0 22.823-10.246 22.823-22.84v-90.255c1.134-29.434 25.027-52.472 54.457-52.472 14.273 0 27.765 5.488 37.988 15.454 10.173 9.917 16.019 23.179 16.469 37.358v13.711l-19.898 5.945-11.737-5.481v-12.126c0-12.594-10.238-22.84-22.822-22.84-12.583 0-22.821 10.246-22.821 22.834l-.071 89.21c-.22 14.413-5.978 27.918-16.214 38.032-10.259 10.136-23.866 15.718-38.313 15.718-30.096 0-54.58-24.484-54.58-54.58v-30.815h31.897v30.307c-.001 12.594 10.237 22.84 22.822 22.84z"/><path d="m437.022 74.984c-48.352-48.354-112.64-74.984-181.022-74.984-68.375 0-132.662 26.63-181.016 74.984s-74.984 112.64-74.984 181.016c0 68.388 26.63 132.678 74.984 181.028 48.351 48.346 112.637 74.972 181.016 74.972 68.385 0 132.672-26.626 181.021-74.972 48.351-48.349 74.979-112.639 74.979-181.028 0-68.377-26.628-132.664-74.978-181.016zm-11.314 350.73c-45.327 45.325-105.596 70.286-169.708 70.286-64.106 0-124.375-24.961-169.703-70.286-45.332-45.328-70.297-105.601-70.297-169.714 0-64.102 24.965-124.37 70.298-169.703 45.332-45.332 105.6-70.297 169.702-70.297 64.107 0 124.377 24.965 169.708 70.297 45.329 45.331 70.292 105.599 70.292 169.703 0 64.115-24.963 124.387-70.292 169.714z"/><path d="m430.038 114.969c-2.784-3.431-7.822-3.957-11.252-1.172-3.431 2.784-3.956 7.822-1.172 11.252 29.912 36.87 46.386 83.377 46.386 130.951 0 55.566-21.635 107.803-60.919 147.085s-91.518 60.915-147.081 60.915c-51.261 0-100.505-18.807-138.663-52.956-3.292-2.946-8.35-2.666-11.296.626s-2.666 8.35.626 11.296c41.096 36.779 94.13 57.034 149.333 57.034 59.836 0 116.088-23.297 158.394-65.601 42.307-42.305 65.606-98.559 65.606-158.399 0-51.233-17.744-101.319-49.962-141.031z"/><path d="m48 256c0-114.691 93.309-208 208-208 51.26 0 100.504 18.808 138.662 52.959 3.293 2.948 8.35 2.666 11.296-.625 2.947-3.292 2.667-8.35-.625-11.296-41.096-36.782-94.13-57.038-149.333-57.038-59.829 0-116.08 23.301-158.39 65.611-42.309 42.309-65.61 98.56-65.61 158.389 0 51.239 17.744 101.328 49.963 141.038 1.581 1.949 3.889 2.96 6.217 2.96 1.771 0 3.553-.585 5.036-1.788 3.431-2.784 3.956-7.822 1.172-11.253-29.914-36.869-46.388-83.377-46.388-130.957z"/></svg>