<svg enable-background="new 0 0 512 512" viewBox="0 0 512 512" xmlns="http://www.w3.org/2000/svg"><path d="m437.022 74.984c-48.352-48.354-112.641-74.984-181.022-74.984-68.376 0-132.662 26.63-181.016 74.984s-74.984 112.64-74.984 181.016c0 68.388 26.63 132.678 74.984 181.028 48.351 48.347 112.637 74.972 181.016 74.972 68.385 0 132.673-26.625 181.021-74.972 48.351-48.349 74.979-112.639 74.979-181.028 0-68.377-26.628-132.664-74.978-181.016zm-11.314 350.73c-45.327 45.325-105.597 70.286-169.708 70.286-64.106 0-124.374-24.961-169.703-70.286-45.332-45.328-70.297-105.601-70.297-169.714 0-64.102 24.965-124.37 70.297-169.703 45.333-45.332 105.601-70.297 169.703-70.297 64.108 0 124.378 24.965 169.708 70.297 45.329 45.331 70.292 105.599 70.292 169.703 0 64.115-24.963 124.387-70.292 169.714z"/><path d="m430.038 114.969c-2.783-3.432-7.821-3.957-11.253-1.172-3.431 2.784-3.956 7.822-1.172 11.252 29.913 36.87 46.387 83.377 46.387 130.951 0 55.567-21.635 107.803-60.919 147.085s-91.518 60.915-147.081 60.915c-51.26 0-100.505-18.807-138.663-52.956-3.292-2.946-8.35-2.665-11.296.626-2.946 3.292-2.666 8.35.626 11.296 41.096 36.779 94.13 57.034 149.333 57.034 59.837 0 116.089-23.297 158.394-65.601 42.307-42.304 65.606-98.559 65.606-158.399 0-51.233-17.744-101.319-49.962-141.031z"/><path d="m48 256c0-114.691 93.309-208 208-208 51.26 0 100.504 18.808 138.662 52.959 3.293 2.948 8.351 2.667 11.296-.625 2.947-3.292 2.667-8.35-.625-11.296-41.096-36.782-94.13-57.038-149.333-57.038-59.829 0-116.08 23.301-158.389 65.611-42.31 42.31-65.611 98.56-65.611 158.389 0 51.239 17.744 101.328 49.963 141.038 1.581 1.949 3.889 2.96 6.217 2.96 1.771 0 3.553-.585 5.036-1.788 3.431-2.784 3.956-7.822 1.172-11.253-29.914-36.869-46.388-83.377-46.388-130.957z"/><path d="m196.129 365.074c3.139 7.766 8.681 15.089 16.514 21.799 7.668 6.485 16.921 11.531 27.521 15.005 10.215 3.317 18.378 5.115 32.241 5.115 11.61 0 22.653-1.183 32.857-3.523 10.078-2.36 21.387-6.445 33.614-12.14 2.819-1.313 4.622-4.142 4.622-7.252v-43.184c0-2.936-1.608-5.635-4.189-7.034s-5.721-1.271-8.18.332c-12.421 8.097-24.991 12.203-37.362 12.203-6.442 0-11.972-1.411-16.906-4.314-.002-.001-.005-.003-.007-.004-3.089-1.813-6.066-5.08-7.076-7.758-1.008-2.682-.996-11.212-.98-22.011l.004-66.93h55.865c4.418 0 8-3.582 8-8v-48.878c0-4.418-3.582-8-8-8h-55.865v-55.329c0-4.418-3.582-8-8-8h-39.278c-4.037 0-7.441 3.007-7.939 7.013-1.633 13.132-4.61 23.976-8.854 32.24-4.227 8.261-9.678 15.139-16.671 21.031-5.535 4.674-15.363 9.347-28.421 13.513-3.317 1.058-5.568 4.14-5.568 7.622v38.788c0 4.418 3.582 8 8 8h29.51v88.028c-.001 13.684 1.485 24.037 4.548 31.668zm-26.059-135.697v-25.034c12.486-4.406 21.993-9.328 28.306-14.658 8.525-7.183 15.456-15.922 20.593-25.962 4.283-8.34 7.459-18.593 9.471-30.551h24.361v55.328c0 4.418 3.582 8 8 8h55.865v32.877h-55.865c-4.418 0-8 3.582-8 8v70.208l-.004 4.698c-.021 14.345-.032 22.248 2.006 27.67 2.309 6.124 7.655 12.223 13.95 15.919 7.356 4.327 15.772 6.521 25.013 6.521 11.307 0 22.607-2.642 33.731-7.87v24.393c-9.436 4.143-18.121 7.155-25.849 8.965-8.997 2.063-18.836 3.11-29.245 3.11-11.799 0-18.451-1.459-27.279-4.326-8.611-2.822-16.064-6.863-22.112-11.978-5.827-4.993-9.881-10.245-12.043-15.593-2.25-5.604-3.39-14.247-3.39-25.691v-96.028c0-4.418-3.582-8-8-8h-29.509z"/></svg>