<svg enable-background="new 0 0 512 512" viewBox="0 0 512 512" xmlns="http://www.w3.org/2000/svg"><path d="m437.022 74.984c-48.352-48.354-112.641-74.984-181.022-74.984-68.376 0-132.662 26.63-181.016 74.984s-74.984 112.64-74.984 181.016c0 68.388 26.63 132.678 74.984 181.028 48.351 48.347 112.637 74.972 181.016 74.972 68.385 0 132.673-26.625 181.021-74.972 48.351-48.349 74.979-112.639 74.979-181.028 0-68.377-26.628-132.664-74.978-181.016zm-11.314 350.73c-45.327 45.325-105.597 70.286-169.708 70.286-64.106 0-124.374-24.961-169.703-70.286-45.332-45.328-70.297-105.601-70.297-169.714 0-64.102 24.965-124.37 70.297-169.703 45.333-45.332 105.601-70.297 169.703-70.297 64.108 0 124.378 24.965 169.708 70.297 45.329 45.331 70.292 105.599 70.292 169.703 0 64.115-24.963 124.387-70.292 169.714z"/><path d="m430.038 114.969c-2.783-3.432-7.821-3.956-11.253-1.172-3.431 2.784-3.956 7.822-1.172 11.252 29.913 36.87 46.387 83.377 46.387 130.951 0 55.567-21.635 107.803-60.919 147.085s-91.518 60.915-147.081 60.915c-51.26 0-100.505-18.807-138.663-52.956-3.292-2.946-8.35-2.666-11.296.626s-2.666 8.35.626 11.296c41.096 36.779 94.13 57.034 149.333 57.034 59.837 0 116.089-23.297 158.394-65.601 42.307-42.304 65.606-98.559 65.606-158.399 0-51.233-17.744-101.319-49.962-141.031z"/><path d="m48 256c0-114.691 93.309-208 208-208 51.26 0 100.504 18.808 138.662 52.959 3.293 2.948 8.35 2.666 11.296-.625 2.947-3.292 2.667-8.35-.625-11.296-41.096-36.782-94.13-57.038-149.333-57.038-59.829 0-116.08 23.301-158.389 65.611-42.31 42.31-65.611 98.56-65.611 158.389 0 51.239 17.744 101.328 49.963 141.038 1.581 1.949 3.889 2.96 6.217 2.96 1.771 0 3.553-.585 5.036-1.788 3.431-2.784 3.956-7.822 1.172-11.253-29.914-36.869-46.388-83.377-46.388-130.957z"/><path d="m398.655 194.764c1.975-2.959 1.757-6.867-.533-9.59-2.29-2.722-6.102-3.604-9.357-2.167-.204.09-.408.18-.612.268 1.881-3.375 3.437-6.949 4.63-10.676 1.014-3.166-.035-6.628-2.635-8.698-2.6-2.071-6.209-2.317-9.067-.622-8.072 4.792-16.708 8.314-25.726 10.498-10.798-9.778-25.002-15.307-39.646-15.307-32.47 0-58.887 26.402-58.887 58.855 0 .928.021 1.854.063 2.776-34.859-4.249-67.035-21.913-89.417-49.384-1.658-2.035-4.206-3.128-6.826-2.922-2.617.205-4.967 1.68-6.288 3.948-5.214 8.949-7.97 19.185-7.97 29.602 0 9.952 2.486 19.542 7.052 28.008-1.225.081-2.435.444-3.528 1.088-2.443 1.438-3.942 4.06-3.942 6.895v.636c0 17.624 7.908 33.796 20.616 44.719-.275.237-.536.495-.78.772-1.859 2.112-2.473 5.045-1.615 7.725 5.467 17.082 18.25 30.333 34.264 36.714-13.001 6.537-27.355 9.933-42.315 9.933-3.772 0-7.544-.216-11.211-.643-3.698-.431-7.206 1.748-8.458 5.255-1.253 3.507.08 7.414 3.214 9.425 24.61 15.785 53.074 24.128 82.315 24.128 57.454 0 93.424-27.125 113.482-49.88 24.968-28.326 39.288-65.827 39.288-102.89 0-.914-.007-1.804-.022-2.676 9.302-7.272 17.333-15.931 23.911-25.79zm-36.724 15.406c-2.198 1.585-3.444 4.176-3.311 6.883.097 1.97.145 3.99.145 6.177 0 33.221-12.863 66.866-35.29 92.31-17.878 20.282-49.996 44.46-101.479 44.46-15.75 0-31.25-2.705-45.896-7.938 17.51-3.161 33.891-10.506 48.153-21.695 2.662-2.088 3.723-5.626 2.648-8.835-1.075-3.208-4.052-5.394-7.436-5.458-14.083-.265-26.831-7.364-34.527-18.535 4.015-.244 8.006-.896 11.91-1.951 3.583-.967 6.029-4.272 5.91-7.981s-2.774-6.849-6.411-7.584c-15.937-3.219-28.377-15.183-32.716-30.254 4.279 1.13 8.688 1.784 13.119 1.932 3.577.122 6.79-2.146 7.883-5.548 1.094-3.402-.203-7.118-3.175-9.102-11.942-7.97-19.071-21.318-19.071-35.707 0-3.646.462-7.259 1.363-10.751 26.808 27.682 63.308 44.387 101.994 46.315 2.526.125 4.93-.936 6.54-2.863 1.609-1.928 2.22-4.5 1.649-6.946-.735-3.149-1.108-6.438-1.108-9.775 0-23.63 19.239-42.855 42.887-42.855 11.804 0 23.217 4.931 31.314 13.527 1.884 2 4.664 2.894 7.358 2.367 3.031-.593 6.028-1.312 8.986-2.156-1.483 1.179-3.052 2.266-4.696 3.25-3.236 1.938-4.679 5.872-3.463 9.442 1.216 3.571 4.757 5.809 8.506 5.367 1.303-.153 2.602-.329 3.897-.529-1.834 1.545-3.729 3.023-5.683 4.433z"/></svg>