<svg enable-background="new 0 0 512 512" viewBox="0 0 512 512" xmlns="http://www.w3.org/2000/svg"><path d="m437.022 74.984c-48.352-48.354-112.641-74.984-181.022-74.984-68.376 0-132.662 26.63-181.016 74.984s-74.984 112.64-74.984 181.016c0 68.388 26.63 132.678 74.984 181.028 48.351 48.347 112.637 74.972 181.016 74.972 68.385 0 132.673-26.625 181.021-74.972 48.351-48.349 74.979-112.639 74.979-181.028 0-68.377-26.628-132.664-74.978-181.016zm-11.314 350.73c-45.327 45.325-105.597 70.286-169.708 70.286-64.106 0-124.374-24.961-169.703-70.286-45.332-45.328-70.297-105.601-70.297-169.714 0-64.102 24.965-124.37 70.297-169.703 45.333-45.332 105.601-70.297 169.703-70.297 64.108 0 124.378 24.965 169.708 70.297 45.329 45.331 70.292 105.599 70.292 169.703 0 64.115-24.963 124.387-70.292 169.714z"/><path d="m430.038 114.969c-2.783-3.432-7.821-3.957-11.253-1.172-3.431 2.784-3.956 7.822-1.172 11.252 29.913 36.87 46.387 83.377 46.387 130.951 0 55.567-21.635 107.803-60.919 147.085s-91.518 60.915-147.081 60.915c-51.26 0-100.505-18.807-138.663-52.956-3.292-2.946-8.35-2.666-11.296.626s-2.666 8.35.626 11.296c41.096 36.779 94.13 57.034 149.333 57.034 59.837 0 116.089-23.297 158.394-65.601 42.307-42.304 65.606-98.559 65.606-158.399 0-51.233-17.744-101.319-49.962-141.031z"/><path d="m48 256c0-114.691 93.309-208 208-208 51.26 0 100.504 18.808 138.662 52.959 3.293 2.948 8.351 2.666 11.296-.625 2.947-3.292 2.667-8.35-.625-11.296-41.096-36.782-94.13-57.038-149.333-57.038-59.829 0-116.08 23.301-158.389 65.611-42.31 42.31-65.611 98.56-65.611 158.389 0 51.239 17.744 101.328 49.963 141.038 1.581 1.949 3.889 2.96 6.217 2.96 1.771 0 3.553-.585 5.036-1.788 3.431-2.784 3.956-7.822 1.172-11.253-29.914-36.869-46.388-83.377-46.388-130.957z"/><path d="m265.4 287.545c-4.27-7.012-10.195-30.727-13.187-42.699-1.715-6.849-3.073-15.012-4.509-23.655-4.254-25.59-8.654-52.05-24.506-63.039-6.423-4.453-13.985-5.865-22.476-4.2-34.466 6.761-77.059 57.238-78.855 59.384-2.399 2.866-2.495 7.011-.23 9.984l10.06 13.205c1.297 1.703 3.226 2.812 5.349 3.084s4.27-.32 5.955-1.639c5.986-4.688 13.814-8.706 16.925-8.779 3.651 6.732 13.375 38.532 20.551 62.003 8.191 26.788 15.927 52.09 20.266 61.054 5.395 11.214 17.37 25.902 33.361 30.392 3.217.903 6.455 1.352 9.682 1.352 7.101 0 14.143-2.173 20.755-6.458 11.229-7.284 37.041-27.605 62.559-57.564 21.052-24.716 47.776-63.347 55.54-107.025 0-.001 0-.002 0-.003 5.045-28.441-4.765-43.485-13.882-51.096-13.605-11.357-34.356-13.453-55.513-5.608-21.042 7.804-45.457 27.739-50.874 60.287-.512 3.077.812 6.172 3.39 7.927 2.58 1.756 5.943 1.852 8.618.246 8.38-5.028 15.566-5.952 19.222-2.475 4.077 3.878 4.891 14.003-1.437 25.845-13.805 25.772-22.841 36.259-26.764 39.477zm39.228-76.915c-5.724-5.446-13.472-7.446-22.108-6.01 7.768-17.334 22.879-28.409 36.287-33.381 15.476-5.74 30.686-4.633 39.695 2.889 8.417 7.026 11.315 19.48 8.383 36.017-13.668 76.889-91.072 141.005-111.05 153.965-5.806 3.763-11.499 4.785-17.408 3.127-10.159-2.852-19.006-13.066-23.275-21.94-3.809-7.87-11.722-33.751-19.375-58.78-13.585-44.429-19.552-63.036-23.906-68.168-3.18-3.765-7.218-5.188-11.511-5.188-7.1 0-14.891 3.897-20.611 7.532l-1.42-1.864c4.312-4.787 11.613-12.573 20.32-20.566 17.9-16.433 33.514-26.326 45.153-28.609 5.522-1.082 8.511.422 10.28 1.648 10.294 7.136 14.477 32.296 17.838 52.514 1.492 8.97 2.9 17.443 4.771 24.914 4.063 16.258 7.44 28.875 10.717 37.605 2.217 5.906 6.83 18.195 17.179 18.195 4.235 0 15.485 0 41.683-48.917 9.201-17.217 8.541-35.295-1.642-44.983z"/></svg>