<svg enable-background="new 0 0 512 512" viewBox="0 0 512 512" xmlns="http://www.w3.org/2000/svg"><path d="m437.022 74.984c-48.352-48.354-112.641-74.984-181.022-74.984-68.376 0-132.662 26.63-181.016 74.984s-74.984 112.64-74.984 181.016c0 68.388 26.63 132.678 74.984 181.028 48.351 48.347 112.637 74.972 181.016 74.972 68.385 0 132.673-26.625 181.021-74.972 48.351-48.349 74.979-112.639 74.979-181.028 0-68.377-26.628-132.664-74.978-181.016zm-11.314 350.73c-45.327 45.325-105.597 70.286-169.708 70.286-64.106 0-124.374-24.961-169.703-70.286-45.332-45.328-70.297-105.601-70.297-169.714 0-64.102 24.965-124.37 70.297-169.703 45.333-45.332 105.601-70.297 169.703-70.297 64.108 0 124.378 24.965 169.708 70.297 45.329 45.331 70.292 105.599 70.292 169.703 0 64.115-24.963 124.387-70.292 169.714z"/><path d="m430.038 114.969c-2.783-3.432-7.821-3.957-11.253-1.172-3.431 2.784-3.956 7.822-1.172 11.252 29.913 36.87 46.387 83.377 46.387 130.951 0 55.567-21.635 107.803-60.919 147.085s-91.518 60.915-147.081 60.915c-51.26 0-100.505-18.807-138.663-52.956-3.292-2.946-8.35-2.666-11.296.626s-2.666 8.35.626 11.296c41.096 36.779 94.13 57.034 149.333 57.034 59.837 0 116.089-23.297 158.394-65.601 42.307-42.304 65.606-98.559 65.606-158.399 0-51.233-17.744-101.319-49.962-141.031z"/><path d="m48 256c0-114.691 93.309-208 208-208 51.26 0 100.504 18.808 138.662 52.959 3.293 2.948 8.35 2.666 11.296-.625 2.947-3.292 2.667-8.35-.625-11.296-41.096-36.782-94.13-57.038-149.333-57.038-59.829 0-116.08 23.301-158.389 65.611-42.31 42.31-65.611 98.56-65.611 158.389 0 51.239 17.744 101.328 49.963 141.038 1.581 1.949 3.889 2.96 6.217 2.96 1.771 0 3.553-.585 5.036-1.788 3.431-2.784 3.956-7.822 1.172-11.253-29.914-36.869-46.388-83.377-46.388-130.957z"/><path d="m198.994 219.972c-2.245-11.125-4.155-22.843-5.836-35.815l-.303-4.039c-.313-4.174-3.791-7.402-7.978-7.402h-42.327c-2.302 0-4.493.992-6.012 2.722s-2.219 4.031-1.921 6.313l.329 2.514c6.223 44.681 15.199 80.754 28.251 113.529 12.573 31.497 26.702 55.307 44.471 74.942 7.524 8.289 14.913 14.688 22.546 19.536 5.694 3.665 11.539 5.499 17.39 5.499 6.278 0 12.564-2.111 18.685-6.337 2.963-2.1 5.646-4.232 7.985-6.349 24.942-22.655 45.214-49.029 60.288-78.443 5.498-.096 11.372-.711 18.357-1.916 3.69-.651 7.331-1.416 11.13-2.337 3.678-.892 6.19-4.221 6.112-7.936v-27.669c.128-.773.144-1.577.033-2.389-.541-3.964-3.926-6.919-7.927-6.919h-.106c-.919 0-1.801.156-2.623.443-3.589.92-7.359 1.552-11.533 1.932-21.198 2.011-36.332-4.74-46.273-20.629-5.807-9.291-8.265-20.565-7.518-34.438.296-5.146 1.288-9.019 3.119-12.175 2.122-3.386 3.937-3.734 5.49-3.794 1.786-.076 5.504-.223 7.403 7.823 2.055 9.008 1.331 18.844-2.364 31.954-.334 1.222-1.001 3.889-1.001 3.889-.639 2.555.02 5.259 1.763 7.234.18.204 1.797 2.032 3.069 3.304 8.778 8.894 20.321 12.659 35.289 11.507 1.79-.114 4.205-.333 4.205-.333 3.035-.276 5.647-2.25 6.741-5.094 0 0 1.102-2.863 1.54-4.07 6.541-17.956 8.807-35.337 6.931-53.096-3.248-32.337-22.791-52.7-53.642-55.87-32.372-3.231-58.101 12.361-68.823 41.705-5.642 15.512-6.73 32.113-3.336 50.718 5.12 28.745 18.868 50.461 40.844 64.589-8.988 16.517-19.572 31.599-31.5 44.882-24.742-31.455-41.406-70.046-50.948-117.985zm62.437 129.139c13.867-15.36 26.026-32.948 36.137-52.27 3.193-6.093 1.588-11.806-4.343-15.31-20.21-11.744-32.272-30.012-36.881-55.882-2.877-15.768-2.018-29.641 2.622-42.4 8.171-22.359 27.199-33.755 52.18-31.266 29.363 3.017 37.596 24.26 39.337 41.591 1.587 15.023-.284 29.773-5.72 45.068-9.467.563-16.079-1.44-21.287-6.472 2.922-10.527 5.711-24.351 2.336-39.147-3.096-13.12-11.932-20.673-23.621-20.195-7.769.299-13.998 4.148-18.512 11.44-.033.053-.066.107-.098.161-3.194 5.441-4.891 11.617-5.343 19.465-.932 17.3 2.314 31.63 9.927 43.811 13.282 21.229 33.928 30.673 61.319 28.078 1.598-.146 3.154-.323 4.676-.535v12.958c-1.336.272-2.664.524-3.993.758-6.689 1.154-12.137 1.691-17.146 1.691-.103 0-.205.002-.308.006-5.517.212-9.427 2.77-11.932 7.779-14.221 28.035-33.488 53.202-57.256 74.79-1.858 1.682-4.042 3.414-6.41 5.093-6.43 4.439-11.886 4.586-18.285.468-6.449-4.096-12.768-9.595-19.309-16.801-16.444-18.171-29.621-40.455-41.464-70.123-11.918-29.928-20.328-62.869-26.31-103.153h25.87c1.65 12.361 3.516 23.646 5.687 34.4 10.073 50.609 27.84 91.516 54.32 125.065 3.658 4.623 6.546 8.275 11.714 8.444 5.153.165 8.216-3.22 12.093-7.512z"/></svg>