<svg enable-background="new 0 0 512 512" viewBox="0 0 512 512" xmlns="http://www.w3.org/2000/svg"><path d="m437.022 74.984c-48.352-48.354-112.641-74.984-181.022-74.984-68.376 0-132.662 26.63-181.016 74.984s-74.984 112.64-74.984 181.016c0 68.388 26.63 132.678 74.984 181.028 48.351 48.347 112.637 74.972 181.016 74.972 68.385 0 132.673-26.625 181.021-74.972 48.351-48.349 74.979-112.639 74.979-181.028 0-68.377-26.628-132.664-74.978-181.016zm-11.314 350.73c-45.327 45.325-105.597 70.286-169.708 70.286-64.106 0-124.374-24.961-169.703-70.286-45.332-45.328-70.297-105.601-70.297-169.714 0-64.102 24.965-124.37 70.297-169.703 45.333-45.332 105.601-70.297 169.703-70.297 64.108 0 124.378 24.965 169.708 70.297 45.329 45.331 70.292 105.599 70.292 169.703 0 64.115-24.963 124.387-70.292 169.714z"/><path d="m430.038 114.969c-2.784-3.432-7.821-3.957-11.253-1.172-3.431 2.784-3.956 7.822-1.172 11.252 29.913 36.87 46.387 83.377 46.387 130.951 0 55.567-21.635 107.803-60.919 147.085s-91.518 60.915-147.081 60.915c-51.26 0-100.505-18.807-138.663-52.956-3.292-2.946-8.35-2.666-11.296.626s-2.666 8.35.626 11.296c41.096 36.779 94.13 57.034 149.333 57.034 59.837 0 116.089-23.297 158.394-65.601 42.307-42.304 65.606-98.559 65.606-158.399 0-51.233-17.744-101.319-49.962-141.031z"/><path d="m48 256c0-114.691 93.309-208 208-208 51.26 0 100.504 18.808 138.662 52.959 3.293 2.948 8.351 2.666 11.296-.625 2.947-3.292 2.667-8.35-.625-11.296-41.096-36.782-94.13-57.038-149.333-57.038-59.829 0-116.08 23.301-158.389 65.611-42.31 42.31-65.611 98.56-65.611 158.389 0 51.239 17.744 101.328 49.963 141.038 1.581 1.949 3.889 2.96 6.217 2.96 1.771 0 3.553-.585 5.036-1.788 3.431-2.784 3.956-7.822 1.172-11.253-29.914-36.869-46.388-83.377-46.388-130.957z"/><path d="m393.81 199.21c-.297-2.237-3.165-22.123-12.481-32.244-11.127-12.384-23.789-13.666-29.877-14.283-.531-.054-1.019-.103-1.458-.156-.12-.015-.239-.027-.359-.036-36.754-2.849-92.235-2.882-92.792-2.882h-.124c-.556 0-56.038.033-92.784 2.882-.12.009-.24.021-.359.036-.438.054-.926.103-1.458.156-6.086.616-18.742 1.897-29.876 14.282-9.308 10.117-12.184 30.004-12.481 32.242-.006.044-.011.089-.017.133-.11.947-2.689 23.462-2.689 46.399v21.314c0 22.953 2.579 45.46 2.689 46.407.005.043.011.087.016.131.297 2.237 3.166 22.118 12.486 32.224 10.304 11.453 23.351 13.129 30.365 14.031 1.235.159 2.302.296 3.029.441.248.049.498.087.75.113 21.2 2.171 87.505 2.839 90.409 2.867.557-.001 56.085-.132 92.828-2.947.136-.01.271-.024.405-.042.452-.058.957-.109 1.507-.167 6.074-.635 18.705-1.955 29.789-14.292 9.309-10.104 12.184-29.979 12.481-32.216.006-.044.011-.089.017-.134.11-.947 2.688-23.461 2.689-46.406v-21.315c0-22.945-2.579-45.459-2.689-46.407-.005-.044-.011-.087-.016-.131zm-13.296 67.853c0 21.399-2.42 43.136-2.575 44.499-.602 4.445-3.392 18.033-8.397 23.436-.03.032-.06.065-.089.098-6.977 7.786-14.56 8.578-19.578 9.103-.6.063-1.155.122-1.661.184-36.146 2.754-90.895 2.884-91.352 2.886-.678-.007-67.638-.68-88.505-2.75-1.154-.212-2.398-.372-3.707-.541-5.992-.77-14.199-1.825-20.538-8.893-.03-.033-.06-.066-.09-.099-4.448-4.797-7.503-16.895-8.394-23.436-.158-1.395-2.575-23.106-2.575-44.496v-21.314c0-21.4 2.422-43.145 2.575-44.493.602-4.449 3.394-18.048 8.401-23.464.027-.03.055-.06.082-.09 7.008-7.814 14.596-8.582 19.617-9.091.58-.059 1.118-.114 1.61-.172 36.127-2.788 90.83-2.821 91.379-2.821h.124c.549 0 55.252.033 91.387 2.821.491.058 1.03.113 1.61.172 5.023.508 12.614 1.277 19.614 9.088.029.032.058.063.086.095 4.45 4.808 7.506 16.91 8.4 23.466.158 1.393 2.575 23.113 2.575 44.496z"/><path d="m310.355 249.579-82.356-49.415c-2.472-1.482-5.549-1.521-8.058-.102-2.508 1.42-4.059 4.079-4.059 6.961v98.829c0 2.882 1.55 5.542 4.059 6.961 1.224.693 2.583 1.039 3.941 1.039 1.426 0 2.851-.381 4.116-1.14l82.356-49.415c2.409-1.446 3.884-4.05 3.884-6.86s-1.473-5.413-3.883-6.858zm-78.472 42.145v-70.57l58.808 35.285z"/></svg>